HIERARCHY
ROOT Hips
{
	OFFSET 0.000000 0.000000 0.000000
	CHANNELS 6 Xposition Yposition Zposition Zrotation Yrotation Xrotation 
	JOINT LHipJoint
	{
		OFFSET 0.000000 0.000000 0.000000
		CHANNELS 3 Zrotation Yrotation Xrotation
		JOINT LeftUpLeg
		{
			OFFSET 1.363060 -1.794630 0.839290
			CHANNELS 3 Zrotation Yrotation Xrotation
			JOINT LeftLeg
			{
				OFFSET 2.448110 -6.726130 0.000000
				CHANNELS 3 Zrotation Yrotation Xrotation
				JOINT LeftFoot
				{
					OFFSET 2.562200 -7.039590 0.000000
					CHANNELS 3 Zrotation Yrotation Xrotation
					JOINT LeftToeBase
					{
						OFFSET 0.157640 -0.433110 2.322550
						CHANNELS 3 Zrotation Yrotation Xrotation
						End Site
						{
							OFFSET 0.000000 0.000000 0.000000
						}
					}
				}
			}
		}
	}
	JOINT RHipJoint
	{
		OFFSET 0.000000 0.000000 0.000000
		CHANNELS 3 Zrotation Yrotation Xrotation
		JOINT RightUpLeg
		{
			OFFSET -1.305520 -1.794630 0.839290
			CHANNELS 3 Zrotation Yrotation Xrotation
			JOINT RightLeg
			{
				OFFSET -2.542530 -6.985550 0.000000
				CHANNELS 3 Zrotation Yrotation Xrotation
				JOINT RightFoot
				{
					OFFSET -2.568260 -7.056230 0.000000
					CHANNELS 3 Zrotation Yrotation Xrotation
					JOINT RightToeBase
					{
						OFFSET -0.164730 -0.452590 2.363150
						CHANNELS 3 Zrotation Yrotation Xrotation
						End Site
						{
							OFFSET 0.000000 0.000000 0.000000
						}
					}
				}
			}
		}
	}
}
MOTION
Frames: 24
Frame Time: 0.008333
-18.060194 15.724059 -0.402520 116.384468 86.333493 140.470927 -6.657182 1.777881 10.506175 -7.223667 -22.409216 -69.348476 -0.940147 1.608596 39.147673 1.956496 7.185420 -6.564008 0.903200 -0.000000 -25.190300 11.628738 -5.767287 1.545808 4.609132 -12.357947 7.951446 1.436357 -0.354187 7.176039 0.432911 5.319517 17.224011 1.810900 0.000000 -84.891099
-17.803491 15.773651 -0.405978 114.536167 86.250727 138.364424 -6.639045 1.827208 10.367091 -7.954745 -22.188638 -68.182676 -0.924268 1.654019 39.810798 2.046834 7.600218 -6.897153 0.864700 -0.000000 -24.907601 11.848936 -5.838296 1.558441 3.994809 -12.587805 6.766003 1.070789 -0.671388 10.133436 0.266895 5.888464 20.854616 2.484400 0.000000 -85.566500
-17.551333 15.825909 -0.411219 112.487748 86.185411 135.984697 -6.651751 1.871760 10.172399 -8.826896 -21.751496 -66.798954 -0.952170 1.695349 40.311700 2.091674 7.812440 -7.269381 0.793700 0.000000 -24.587800 12.064571 -5.851215 1.553408 3.376525 -12.877032 5.462372 0.695735 -0.930808 13.359347 0.049116 6.399135 24.246393 3.183600 0.000001 -84.633600
-17.303799 15.880241 -0.418244 110.373107 86.127892 133.475204 -6.694018 1.913653 9.930159 -9.797453 -21.118819 -65.229092 -1.017562 1.730238 40.660107 2.094898 7.829630 -7.696437 0.692100 0.000000 -24.213699 12.261124 -5.801589 1.530764 2.782234 -13.202216 4.065819 0.337934 -1.127389 16.808670 -0.206476 6.642667 27.211097 3.744500 -0.000000 -82.092500
-17.061158 15.936163 -0.426470 108.259229 86.056002 130.908232 -6.755059 1.959298 9.652899 -10.837220 -20.336355 -63.493915 -1.115270 1.755155 40.853527 2.065080 7.682157 -8.185113 0.566400 0.000000 -23.791700 12.436307 -5.691168 1.482210 2.200827 -13.584049 2.590471 0.019555 -1.270445 20.449005 -0.480125 6.442696 29.569386 3.997701 -0.000000 -78.168201
-16.823090 15.993372 -0.435631 106.276529 85.959391 128.426549 -6.827214 2.012965 9.354759 -11.904963 -19.447845 -61.626792 -1.238330 1.766859 40.894123 2.011780 7.405355 -8.737261 0.424200 -0.000001 -23.343100 12.586218 -5.529141 1.403533 1.636409 -14.025573 1.041649 -0.246976 -1.379073 24.239852 -0.755511 5.647147 31.180640 3.796800 0.000000 -73.311600
-16.589304 16.051671 -0.445119 104.485505 85.822724 126.103792 -6.898544 2.079304 9.050890 -12.974287 -18.508713 -59.653837 -1.381165 1.762389 40.776534 1.946106 7.046049 -9.344074 0.275100 -0.000000 -22.902300 12.715431 -5.324737 1.290960 1.075115 -14.533597 -0.582136 -0.461297 -1.475176 28.139267 -1.022362 4.202980 31.946675 3.088200 0.000000 -68.064200
-16.359040 16.110985 -0.455113 102.989034 85.654939 124.066236 -6.967874 2.156559 8.754561 -13.999413 -17.553785 -57.621432 -1.535943 1.740100 40.509008 1.876292 6.639629 -9.994465 0.126400 -0.000001 -22.499200 12.820097 -5.090895 1.152123 0.544965 -15.070225 -2.289651 -0.629906 -1.577955 32.092849 -1.276454 2.145712 31.822048 1.918800 0.000000 -62.937300
-16.131789 16.171331 -0.465420 101.765083 85.458658 122.311859 -7.030547 2.243200 8.477513 -14.956271 -16.622434 -55.561860 -1.697174 1.698798 40.091767 1.810190 6.225228 -10.669082 -0.015200 0.000000 -22.159700 12.903733 -4.836925 0.994630 0.053638 -15.608579 -4.093028 -0.762853 -1.700904 36.049718 -1.515119 -0.360132 30.796345 0.456001 -0.000000 -58.205399
-15.906825 16.232635 -0.475711 100.708988 85.232825 120.752805 -7.079820 2.337989 8.228472 -15.839317 -15.751594 -53.494023 -1.861191 1.637817 39.520277 1.754649 5.841776 -11.344236 -0.145201 0.000000 -21.896900 12.974071 -4.568327 0.826268 -0.405068 -16.128318 -6.003790 -0.869893 -1.851352 39.958044 -1.734999 -3.070827 28.898024 -1.061999 0.000000 -53.897700
-15.683720 16.294870 -0.486228 99.719976 84.993212 119.305908 -7.117610 2.435985 8.011954 -16.633422 -14.953766 -51.444229 -2.023436 1.557233 38.799735 1.712585 5.511048 -11.998307 -0.262200 0.000000 -21.709200 13.031192 -4.292944 0.660734 -0.810108 -16.590716 -8.033421 -0.958012 -2.030836 43.759291 -1.932380 -5.742093 26.206348 -2.402299 -0.000000 -49.864400
-15.461944 16.357937 -0.496958 98.653972 84.749766 117.837247 -7.143632 2.533739 7.828364 -17.339177 -14.235907 -49.423016 -2.181233 1.457294 37.930450 1.685562 5.250738 -12.608810 -0.366000 -0.000000 -21.583200 13.078124 -4.014623 0.509608 -1.155332 -16.967498 -10.184916 -1.031414 -2.235690 47.393420 -2.102970 -8.157292 22.847031 -3.381100 -0.000000 -45.883200
-15.241184 16.421543 -0.507723 97.360974 84.507916 116.200383 -7.155708 2.629435 7.674556 -17.968206 -13.598977 -47.426410 -2.333482 1.338190 36.907741 1.674002 5.073770 -13.155199 -0.457700 -0.000000 -21.495500 13.119470 -3.733617 0.382029 -1.445601 -17.238804 -12.449619 -1.091098 -2.458694 50.801818 -2.242417 -10.160728 18.983557 -3.899400 0.000000 -41.728099
-15.021157 16.485422 -0.518837 95.754956 84.285964 114.309902 -7.160396 2.718662 7.543551 -18.515453 -13.020923 -45.457515 -2.477828 1.200668 35.739744 1.674814 4.973867 -13.624861 -0.538699 0.000000 -21.419100 13.151282 -3.453342 0.289248 -1.659981 -17.373372 -14.813139 -1.135273 -2.690336 53.928060 -2.348707 -11.683333 14.811986 -3.960200 0.000000 -37.278600
-14.801736 16.549100 -0.530540 93.769513 84.096606 112.093884 -7.162879 2.798414 7.426243 -18.980202 -12.477625 -43.510477 -2.612870 1.045673 34.434102 1.684179 4.939512 -14.010326 -0.610001 0.000000 -21.326600 13.170763 -3.175292 0.238135 -1.786462 -17.351560 -17.252004 -1.161287 -2.920785 56.724966 -2.421798 -12.716589 10.540201 -3.641100 0.000000 -32.534000
-14.582880 16.612089 -0.542712 91.358494 83.941852 109.495349 -7.164666 2.867667 7.313554 -19.369886 -11.951712 -41.566280 -2.738398 0.873965 32.991884 1.698882 4.961061 -14.307040 -0.672000 0.000000 -21.197200 13.178102 -2.898379 0.230229 -1.829870 -17.170163 -19.733892 -1.167578 -3.141460 59.156477 -2.463944 -13.297696 6.376629 -3.065500 0.000000 -27.662700
-14.364510 16.673801 -0.555934 88.536966 83.837910 106.520933 -7.176842 2.922781 7.195877 -19.668049 -11.408786 -39.627039 -2.851950 0.687797 31.437473 1.712899 5.009872 -14.522632 -0.725000 -0.000000 -21.018400 13.165201 -2.628022 0.268903 -1.763503 -16.816539 -22.231812 -1.155131 -3.344488 61.198619 -2.481571 -13.511811 2.518892 -2.375600 0.000000 -23.002700
-14.146666 16.733618 -0.570153 85.322231 83.779234 103.175151 -7.200651 2.963619 7.066507 -19.879210 -10.839460 -37.675405 -2.953331 0.489012 29.778148 1.723311 5.072914 -14.662082 -0.769001 -0.000000 -20.790300 13.132192 -2.363847 0.349009 -1.596664 -16.306440 -24.713628 -1.127713 -3.525168 62.842591 -2.480990 -13.448102 -0.877928 -1.689600 -0.000000 -18.928500
-13.929232 16.790883 -0.585716 81.769875 83.770443 99.506569 -7.243552 2.988953 6.921480 -19.992654 -10.227662 -35.716840 -3.040762 0.281096 28.041783 1.725835 5.125344 -14.739371 -0.804100 -0.000000 -20.523700 13.073485 -2.110744 0.467266 -1.315808 -15.651007 -27.158602 -1.090316 -3.680012 64.094257 -2.470266 -13.209007 -3.720023 -1.089599 -0.000000 -15.721400
-13.712125 16.844883 -0.602722 77.952402 83.805366 95.581614 -7.307249 2.999601 6.760473 -20.009372 -9.576001 -33.750795 -3.113592 0.067548 26.248173 1.718642 5.154282 -14.765538 -0.830500 0.000000 -20.239000 12.987538 -1.870224 0.615618 -0.925795 -14.878208 -29.548698 -1.046926 -3.808109 64.970668 -2.456546 -12.883028 -5.988778 -0.611500 0.000000 -13.452000
-13.495181 16.894986 -0.621149 73.968166 83.876464 91.495289 -7.392465 2.997388 6.586922 -19.933681 -8.894829 -31.782726 -3.171480 -0.147670 24.419663 1.700954 5.150448 -14.751831 -0.848800 -0.000000 -19.961300 12.872687 -1.643749 0.786145 -0.433322 -14.019733 -31.872572 -0.999294 -3.909749 65.494791 -2.446614 -12.543443 -7.727184 -0.257500 0.000000 -12.006801
-13.278102 16.940597 -0.640962 69.932487 83.977971 87.365891 -7.498376 2.984689 6.406395 -19.771816 -8.202001 -29.825093 -3.214370 -0.360600 22.578441 1.673155 5.109923 -14.707278 -0.859600 -0.000000 -19.715300 12.727817 -1.431684 0.970862 0.154061 -13.108141 -34.127569 -0.946556 -3.986196 65.690017 -2.446038 -12.241358 -9.016614 -0.009801 0.000000 -11.169401
-13.060694 16.981200 -0.661993 65.973983 84.103519 83.324334 -7.622841 2.965126 6.226464 -19.536872 -7.518253 -27.889663 -3.242968 -0.567607 20.743893 1.636491 5.033520 -14.638280 -0.863400 0.000000 -19.521500 12.552674 -1.234481 1.163686 0.823521 -12.175346 -36.312335 -0.885874 -4.038919 65.575670 -2.457398 -11.998050 -9.953639 0.156300 0.000000 -10.706400
-12.842587 17.016414 -0.684025 62.219485 84.249837 79.504714 -7.762517 2.942455 6.054291 -19.243636 -6.864901 -25.992006 -3.258460 -0.765739 18.932605 1.592800 4.925777 -14.548746 -0.860699 -0.000000 -19.392600 12.348273 -1.052248 1.359971 1.561046 -11.248363 -38.430012 -0.812961 -4.069592 65.163747 -2.479259 -11.803704 -10.629689 0.263100 0.000000 -10.428200
